<?xml version="1.0" encoding="UTF-8"?>
<!DOCTYPE svg PUBLIC "-//W3C//DTD SVG 1.1//EN" "http://www.w3.org/Graphics/SVG/1.1/DTD/svg11.dtd">
<!-- Creator: CorelDRAW 2018 (64-Bit) -->
<svg xmlns="http://www.w3.org/2000/svg" xml:space="preserve" width="149.287mm" height="60.0414mm" version="1.1" style="shape-rendering:geometricPrecision; text-rendering:geometricPrecision; image-rendering:optimizeQuality; fill-rule:evenodd; clip-rule:evenodd"
viewBox="0 0 20466.41 8231.32"
 xmlns:xlink="http://www.w3.org/1999/xlink">
 <defs>
  <style type="text/css">
   <![CDATA[
    .fil1 {fill:#41C0CB}
    .fil2 {fill:#6A4B3D}
    .fil0 {fill:#F9F1E7}
   ]]>
  </style>
 </defs>
<symbol id="sshop-logo" viewBox="-18240.79 -3629.97 25705.15 10338.28">
 <path id="sshop-logo__text" class="fil0" d="M-16410.36 2085.61c279.77,0 312.66,-230.47 312.66,-296.3 0,-148.06 -250.84,-126.51 -250.84,-438.85 0,-213.89 186.15,-496.94 588.42,-496.94 527.65,0 1258.89,371.11 1258.89,1067.5 0,1358.89 -2036.84,1350.69 -2036.84,2766.12 0,981.35 899.04,1315.75 1501.99,1315.75 465.91,0 1088.14,-276.81 1088.14,-926.91 0,-460.81 -362.05,-724.19 -600.72,-724.19 -156.36,0 -292.12,205.83 -292.12,304.5 0,98.76 240.76,210.89 240.76,400.14 0,189.34 -163.65,332.34 -438.3,332.34 -329.15,0 -853.66,-233.49 -853.66,-702.59 0,-1165.55 2016.19,-946.36 2016.19,-2814.5 0,-962.85 -660.49,-1645.86 -1925.72,-1645.86 -839.44,0 -1187.18,583.27 -1187.18,1011.15 0.05,382.68 185.2,848.64 578.32,848.64zm23874.73 -852.79c0,-230.47 -171.75,-365.19 -350.74,-365.19 -364.27,0 -448.46,966.23 -1338.79,1061.53 2.14,-40.14 3.55,-80.54 3.55,-121.37 0,-783.82 -499.9,-1567.63 -1043.04,-1567.63 -290.06,0 -580.22,203.68 -580.22,691.28 0,556.2 337.21,1105.5 933.84,1354.6 -65.74,315.44 -200.36,466.05 -328.97,466.05 -229.66,0 -447.11,-325.15 -608.01,-652.84 -229.74,-1422.85 -386.33,-3240.65 -386.33,-3881.82 0,-1036.8 -24.65,-1847.4 -283.91,-1847.4 -246.92,0 -394.98,296.12 -394.98,580.13 0,1023.54 260.82,3595.31 577.4,5352.46 -85.7,-91.03 -195.21,-192.66 -325.42,-283.32 -68.07,-1053.97 -639.86,-1819.61 -1108.23,-1807 -245.51,6.51 -552.85,167.2 -718.07,614.07 -177.67,-260.27 -457.89,-576.07 -772.43,-576.07 -254.21,0 -427.01,241.78 -427.01,513.34 0,345.7 308.65,1567.73 308.65,1699.43 0,131.71 -8.29,232.94 -115.21,230.39 -172.79,-4.1 -378.53,-209.74 -541,-414.39 -96.35,-649.2 -167.2,-1310.32 -186.87,-1929.55 -1.04,-32.85 -19.32,-62.73 -48.07,-78.58 -41,-22.69 -81.41,-37.08 -118,-37.08 -78.31,0 -233.29,66.66 -343.37,181.01 -24.65,25.55 -37.73,60.23 -36.04,95.76 113.8,2441.78 778.31,6142.24 1280.49,6142.24 209.88,0 333.3,-185.24 333.3,-271.67 0,-57.85 -481.72,-1710.55 -799.94,-3589.34 225.64,244.51 550.16,543.5 788.55,543.5 396.04,0 437.17,-202.6 437.17,-540.04 0,-222.19 -327.01,-1508.05 -327.01,-1705.59 0,-197.54 57.58,-222.19 131.61,-222.19 106.33,0 236.94,172.62 341.58,346.42 -15.85,115.21 -24.73,241.96 -24.73,381.9 0,1045.14 666.65,1810.45 888.82,1810.45 76.35,0 125.28,-22.96 156.85,-63.6 88.19,63.01 192.66,100.64 314.26,100.64 359.9,0 554.44,-340.36 586.19,-1010.96 203.78,194.07 378,457.89 473.39,615.94 15.94,69.93 31.75,137.4 47.79,201.54 10.75,43.6 44.93,77.68 88.6,88.43 46.01,11.3 85.97,18.67 111.84,18.67 106.33,0 197.44,-45.73 265.24,-95.66 28.84,-21.28 42.1,-57.77 33.53,-92.52 -11.84,-48.42 -23.59,-98.58 -35.22,-150.3 134.98,128.29 330.38,247.78 590.38,247.78 321.5,0 629.19,-353.25 774.75,-845.4 41,2.41 82.41,4.1 124.82,4.1 1043.14,0.1 1649.01,-994.6 1649.01,-1192.14zm-4839.89 1377.44c0,-203.68 41.09,-421.77 246.92,-421.77 50.52,0 101.37,10.84 151.98,29.52 -16.53,457.72 -113.35,726.5 -220.95,726.5 -80.23,0.04 -177.95,-130.57 -177.95,-334.25zm379.67 -769.43c-130.34,-49.38 -272.53,-80.27 -424.96,-80.27 -204.56,0 -344.37,142.65 -420.18,344.46 -58.72,-160.77 -101.46,-348.11 -101.46,-571.79 0,-507.29 106.7,-723.23 315.54,-723.23 224.2,0 545.39,535.48 631.07,1030.82zm2126.18 -2.14c0,1.86 -0.1,3.47 -0.1,5.24 -595.52,-239.35 -773.92,-856.98 -450.52,-856.98 148.2,0.04 450.61,438.26 450.61,851.74zm-5971.41 32.94c0,-962.77 -660.49,-1645.86 -1925.72,-1645.86 -714.84,0 -1072.93,423 -1163.49,812.75 -287.34,-404.59 -568.24,-820.95 -885.59,-820.95 -337.68,0 -580.95,144.06 -732.21,431.83 -135.94,-223.05 -337.13,-433.93 -612.34,-433.93 -300.32,0 -547.24,444.46 -547.24,987.6 0,236.76 17.45,524.65 48.65,842.81 -60.32,11.3 -132.94,18.14 -220.5,18.14 -30.26,0 -59.87,-1.14 -89.25,-2.78 9.53,-82.64 14.85,-167.28 14.85,-253.43 0,-783.82 -500,-1567.63 -1043.08,-1567.63 -290.06,0 -580.13,203.68 -580.13,691.28 0,556.2 337.21,1105.5 933.84,1354.6 -65.83,315.44 -200.36,466.05 -328.97,466.05 -229.74,0 -447.19,-325.23 -608.09,-652.92 -229.74,-1422.76 -386.33,-3240.37 -386.33,-3881.45 0,-1036.98 -24.65,-1847.49 -283.83,-1847.49 -246.92,0 -395.08,296.22 -395.08,580.13 0,718.07 128.37,2197.78 314.26,3623.86 -154.71,-187.74 -338.13,-352.62 -505.6,-352.62 -308.56,0 -462.78,320.86 -462.78,734.43 0,413.57 215.85,1370.09 215.85,1586.22 0,80.27 -24.65,166.65 -92.52,166.65 -64.6,0 -671.88,-44.83 -729.97,-2339.37 -1.59,-65.33 -47.7,-120.73 -111.66,-134.08 -41.09,-8.61 -80.46,-13.9 -115.04,-13.9 -0.37,0 -0.64,0 -0.96,0 -92.03,0.1 -179.91,37.91 -243.27,104.47 -63.36,66.74 -106.51,166.06 -106.51,322.36 0,1696.47 476.48,2060.53 203.68,2060.53 -275.57,0 -733.21,-439.3 -749.74,-2326.21 -0.64,-68.52 -49.11,-126.96 -116.39,-139.96 -28.75,-5.61 -57.5,-8.88 -85.42,-8.88 -93.07,0 -251.02,87.84 -343.19,177.85 -33.89,33.26 -53.4,78.58 -54.12,126.02 -0.18,11.75 -0.18,23.59 -0.37,35.22 -126.78,-167.47 -299.04,-332.89 -484.87,-332.89 -376.58,0 -580.22,469.11 -580.22,999.86 0,530.75 117.27,2129.36 753.02,2129.36 172.79,0 234.53,-197.54 234.53,-265.41 0,-67.88 -358.04,-1240.52 -358.04,-1870.09 0,-191.38 37.08,-401.22 185.15,-401.22 70.48,0 171.66,115.86 258.41,237.41 49.75,1159.04 315.54,2334.37 772.33,2305.44 162.73,-10.34 192.89,-292.12 193.44,-500.08 181.59,244.51 455.3,500.08 806.42,500.08 214.35,0 276.9,-222.09 292.12,-405.14 159.73,182.23 427.56,392.75 812.65,392.75 246.92,0 358.04,-234.44 358.04,-456.62 0,-425.97 -314.8,-1487.46 -314.8,-1814.65 0,-203.78 30.89,-283.91 117.27,-283.91 93.8,0 234.98,235.62 348.29,459.95 111.57,762.55 237.04,1468.59 364.64,1982.02 10.75,43.6 44.93,77.68 88.6,88.43 46.1,11.3 86.05,18.67 111.94,18.67 106.43,0 197.44,-45.73 265.33,-95.66 28.84,-21.28 42.01,-57.77 33.53,-92.52 -11.94,-48.42 -23.69,-98.58 -35.3,-150.3 135.08,128.29 330.48,247.78 590.46,247.78 321.5,0 629.19,-353.25 774.75,-845.4 40.91,2.41 82.41,4.1 124.74,4.1 107.29,0 206.15,-17.45 294.16,-47.24 217.9,1819.02 811.24,4330.65 1256.48,4330.65 209.8,0 333.3,-185.15 333.3,-271.57 0,-86.42 -1082.21,-2903.78 -1082.21,-5172.04 0,-345.6 115.21,-450.52 197.54,-450.52 77.23,0 161.87,81.87 244.51,189.89 -41.61,185.79 -62.51,404.32 -62.51,656.12 0,1037.49 681.12,1758.62 1232.56,1758.62 411.43,0 732.38,-337.4 732.38,-724.19 0,-448.01 -565.83,-985.09 -1261.53,-1135.66 -3.65,-78.03 -5.69,-160 -5.69,-246.92 0,-279.77 115.12,-518.39 287.93,-518.39 298.26,0 637.53,803.67 1037.67,1144.63 66.46,68.7 147.16,117.81 242.37,137.59 31.07,8.12 62.46,12.89 94.31,12.89 279.77,0 312.66,-230.47 312.66,-296.3l-0.11 0c0,-0.96 0.1,-2.23 0.1,-3.1 0,-148.06 -250.84,-126.51 -250.84,-438.85 0,-213.89 186.15,-496.94 588.42,-496.94 527.65,0 1258.98,371.11 1258.98,1067.5 0,1358.89 -2036.92,1350.69 -2036.92,2766.12 0,981.35 899.04,1315.75 1501.99,1315.75 466.01,0 1088.23,-276.71 1088.23,-926.91 0,-460.81 -362.13,-724.19 -600.82,-724.19 -156.36,0 -292.12,205.83 -292.12,304.5 0,98.76 240.86,210.89 240.86,400.22 0,189.24 -163.73,332.25 -438.4,332.25 -329.15,0 -853.66,-233.49 -853.66,-702.59 0.01,-1165.63 2016.2,-946.44 2016.2,-2814.57zm-6761.83 17.16c-577.99,-305.01 -775.61,-901.81 -449.6,-901.81 148.16,0 450.61,438.22 450.61,851.7 -0.01,17.26 -0.74,33.4 -1.01,50.11zm2601.51 22.14c317.67,152.71 621.68,458.44 621.68,717.8 0,148.16 -65.74,263.37 -148.06,263.37 -67.6,0.01 -368.47,-195.03 -473.62,-981.17zm-7909.83 2456.82c185.52,-45.01 407.2,212.11 494.98,574.25 87.78,362.13 8.71,692.24 -176.81,737.31 -185.52,45.06 -407.2,-212.11 -494.98,-574.34 -87.84,-362.18 -8.75,-692.28 176.81,-737.21z"/>
 <path id="sshop-logo__tag" class="fil1" d="M-15886.72 2825.15c7.24,-37.54 -1.78,-76.4 -24.73,-106.97l-129.98 -172.62c-24.38,-32.34 -58.68,-55.44 -97.82,-65.87 -94.03,-25.14 -275.16,-64.87 -396.35,-36.99 -217.72,50.07 -913.88,423.42 -1119.48,488.92 -249.53,79.54 -432.3,77.76 -543.04,61.64 -15.85,-2.28 -31.39,5.79 -38.63,20.04 -7.24,14.26 -4.51,31.57 6.69,43.01l615.21 625.86c16.81,17.08 37.91,29.43 61.01,35.58 66.05,17.63 210.01,47.24 339.17,13.57 406.73,-105.88 1079.4,-519.9 1195.98,-622.78 80.27,-70.73 116.85,-204.9 131.98,-283.39zm-548.1 282.5c-176.17,76.9 -352.15,63.09 -393.21,-30.79 -40.91,-93.8 68.79,-232.25 244.96,-309.11 176.26,-76.81 352.25,-63.09 393.21,30.79 41,93.84 -68.7,232.21 -244.96,309.11z"/>
 <path id="sshop-logo__attach" class="fil2" d="M-14640.27 3375.3c-5.69,116.04 -40.42,181.95 -72.99,217.99 -33.99,37.45 -77.86,58.09 -123.69,58.09 -36.12,0 -75.07,-21.96 -116.67,-64.69 42.73,-26.97 85.51,-54.26 128.16,-82.5 0.1,0.18 0.27,0.37 0.45,0.45 2.14,-1.41 10.34,-6.24 13.16,-9.34 0,0 0.1,-0.1 0.1,-0.18 11.47,-12.89 36.3,-67.88 20.73,-223.6 -12.22,-122.51 -78.03,-266.92 -189.15,-386.19 -72.25,-77.5 -163.38,-144.51 -271.93,-187.56 82.05,81.87 138,180.27 173.16,270.25 -40.32,32.2 -81.6,63.69 -123.86,94.76 -41.73,-131.43 -166.14,-396.57 -491.15,-396.57 -5.88,0 -12.08,0.27 -18.41,0.82 -82.87,17.63 -162.14,44.65 -232.98,74.21 -121.59,54.99 -243.41,126.33 -302.05,163.91 -33.81,21.63 -78.58,12.43 -101.13,-20.73 -22.55,-33.12 -14.63,-78.13 17.86,-101.59 9.43,-6.75 144.69,-103.46 336.95,-182.23 87.19,-38.36 178.18,-70.11 255.71,-79.54 68.66,-14.16 139.96,-22.79 212.03,-22.79 286.87,0 505.92,123.14 654.43,284.28 136.31,147.97 213.21,327.87 227.88,474.25 4.44,44.64 5.07,83.6 3.39,118.49z"/>
</symbol>
 <g id="Слой_x0020_1">
  <metadata id="CorelCorpID_0Corel-Layer"/>
  <use id="logo-full-light.svg" transform="scale(0.796199 -0.796199)" x="0.01" y="-10338.28" width="25705.15" height="10338.28" xlink:href="#sshop-logo"/>
 </g>
</svg>
